<?xml version="1.0" encoding="UTF-8"?>
<svg width="24px" height="13px" viewBox="0 0 24 13" version="1.1" xmlns="http://www.w3.org/2000/svg" xmlns:xlink="http://www.w3.org/1999/xlink">
    <!-- Generator: Sketch 39.1 (31720) - http://www.bohemiancoding.com/sketch -->
    <title>Untitled 2</title>
    <desc>Created with Sketch.</desc>
    <defs></defs>
    <g id="Page-1" stroke="none" stroke-width="1" fill="none" fill-rule="evenodd" fill-opacity="0.2">
        <path d="M13,0 C11.3,0 10,1.3 10,3 C10,4.7 11.3,6 13,6 C14.7,6 16,4.7 16,3 C16,1.3 14.7,0 13,0 L13,0 Z M19.5,0 C18.119288,0 17,1.1192881 17,2.5 C17,3.8807119 18.119288,5 19.5,5 C20.880712,5 22,3.8807119 22,2.5 C22,1.1192881 20.880712,0 19.5,0 L19.5,0 Z M3,1 L3,4 L0,4 L0,6 L3,6 L3,9 L5,9 L5,6 L8,6 L8,4 L5,4 L5,1 L3,1 L3,1 Z M16.3079465,7.4394268 C18.8241858,8.69451485 19.5213675,10.4898239 19.5213675,10.7180217 L19.5213675,10.8249894 L24,10.8249894 L24,9.36309711 C24,9.2489982 22.7965812,6.15406515 19.0769231,6.15406515 C17.7641026,6.15406515 17.0737584,6.86893222 16.3079465,7.4394268 Z M13,7.29505429 C8.4,7.29505429 7,11.0745808 7,11.0745808 L7,13 L19,13 L19,11.0745808 C19,11.0745808 17.6,7.29505429 13,7.29505429 L13,7.29505429 Z" id="Shape" fill="#333333"></path>
    </g>
</svg>