<?xml version="1.0" encoding="UTF-8" standalone="no"?>
<svg width="30px" height="28px" viewBox="0 0 30 28" version="1.1" xmlns="http://www.w3.org/2000/svg" xmlns:xlink="http://www.w3.org/1999/xlink" xmlns:sketch="http://www.bohemiancoding.com/sketch/ns">
    <!-- Generator: Sketch 3.2.2 (9983) - http://www.bohemiancoding.com/sketch -->
    <title>Slice 1</title>
    <desc>Created with Sketch.</desc>
    <defs></defs>
    <g id="Page-1" stroke="none" stroke-width="1" fill="none" fill-rule="evenodd" sketch:type="MSPage">
        <g id="CSH-Logo" sketch:type="MSLayerGroup" fill="#FFFFFF">
            <path d="M23.3333333,7.2 L23.3333333,1.6 C23.3333333,0.71632 22.5870556,0 21.6666667,0 L1.66666667,0 C0.746166667,0 0,0.71632 0,1.6 L0,26.4 C0,27.2835733 0.746166667,28 1.66666667,28 L21.6666667,28 C22.5870556,28 23.3333333,27.2835733 23.3333333,26.4 L23.3333333,20.8 L18.3333333,20.8 L18.3333333,22.4 C18.3333333,22.8418133 17.9602778,23.2 17.5,23.2 L5.83333333,23.2 C5.37311111,23.2 5,22.8418133 5,22.4 L5,5.6 C5,5.15818667 5.37311111,4.8 5.83333333,4.8 L17.5,4.8 C17.9602778,4.8 18.3333333,5.15818667 18.3333333,5.6 L18.3333333,7.2 L23.3333333,7.2 L23.3333333,7.2 Z" id="Shape" sketch:type="MSShapeGroup"></path>
            <path d="M16.25,6.39994667 L7.08338889,6.39994667 C6.85322222,6.39994667 6.66672222,6.57898667 6.66672222,6.79994667 L6.66672222,15.2 C6.66672222,15.42096 6.85322222,15.5999467 7.08338889,15.5999467 L12.7083889,15.5999467 C12.8234444,15.5999467 12.9167222,15.6895467 12.9167222,15.8 L12.9167222,18.1999467 C12.9167222,18.3104 12.8234444,18.3999467 12.7083889,18.3999467 L10.625,18.3999467 C10.5099444,18.3999467 10.4166667,18.3104 10.4166667,18.1999467 L10.4166667,17.2 L6.66672222,17.2 L6.66672222,21.2 C6.66672222,21.4209067 6.85322222,21.6 7.08338889,21.6 L16.25,21.6 C16.4801667,21.6 16.6666667,21.4209067 16.6666667,21.2 L16.6666667,12.8 C16.6666667,12.57904 16.4801667,12.4 16.25,12.4 L10.625,12.4 C10.5099444,12.4 10.4166667,12.3104533 10.4166667,12.2 L10.4166111,9.8 C10.4166111,9.68954667 10.5098889,9.6 10.6249444,9.6 L12.7083333,9.6 C12.8233889,9.6 12.9166667,9.68954667 12.9166667,9.8 L12.9167222,10.8 L16.6666667,10.8 L16.6666667,6.79994667 C16.6666667,6.57898667 16.4801667,6.39994667 16.25,6.39994667 L16.25,6.39994667 Z" id="Shape" sketch:type="MSShapeGroup"></path>
            <path d="M23.3333333,16 L23.3333333,19.2 L18.3333333,19.2 L18.3333333,8.8 L23.3333333,8.8 L23.3333333,12 L25,12 L25,0 L30,0 L30,28 L25,28 L25,16 L23.3333333,16 Z" id="Shape" sketch:type="MSShapeGroup"></path>
        </g>
    </g>
</svg>